<svg xmlns="http://www.w3.org/2000/svg" width="1200" height="630" viewBox="0 0 1200 630" role="img" aria-label="E-Transporte.pro">
  <defs>
    <linearGradient id="bg" x1="0%" y1="0%" x2="100%" y2="100%">
      <stop offset="0%" style="stop-color:#0f0f12"/>
      <stop offset="100%" style="stop-color:#0a0a0b"/>
    </linearGradient>
    <linearGradient id="accent" x1="0%" y1="0%" x2="100%" y2="0%">
      <stop offset="0%" style="stop-color:#e8a317"/>
      <stop offset="100%" style="stop-color:#b45309"/>
    </linearGradient>
  </defs>
  <rect width="1200" height="630" fill="url(#bg)"/>
  <rect x="72" y="72" width="56" height="56" rx="10" fill="url(#accent)"/>
  <text x="150" y="118" fill="#f4f4f5" font-family="system-ui, Segoe UI, sans-serif" font-size="42" font-weight="600" letter-spacing="-1">E-Transporte.pro</text>
  <text x="72" y="200" fill="#a1a1aa" font-family="system-ui, Segoe UI, sans-serif" font-size="28" font-weight="400">Gestăo para motorista executivo e taxista</text>
  <rect x="72" y="248" width="1056" height="310" rx="14" fill="rgba(255,255,255,0.06)" stroke="rgba(255,255,255,0.12)" stroke-width="2"/>
  <rect x="100" y="278" width="140" height="24" rx="6" fill="rgba(232,163,23,0.2)"/>
  <rect x="100" y="318" width="200" height="14" rx="4" fill="rgba(255,255,255,0.08)"/>
  <rect x="100" y="342" width="260" height="14" rx="4" fill="rgba(255,255,255,0.06)"/>
  <rect x="100" y="390" width="1000" height="1" fill="rgba(255,255,255,0.1)"/>
  <rect x="100" y="410" width="480" height="36" rx="8" fill="rgba(255,255,255,0.04)" stroke="rgba(255,255,255,0.08)"/>
  <rect x="100" y="462" width="420" height="36" rx="8" fill="rgba(255,255,255,0.04)" stroke="rgba(255,255,255,0.08)"/>
  <rect x="620" y="410" width="480" height="88" rx="8" fill="rgba(232,163,23,0.08)" stroke="rgba(232,163,23,0.25)"/>
</svg>
